<?xml version="1.0" encoding="UTF-8"?>
<svg width="177px" height="56px" viewBox="0 0 177 56" version="1.1" xmlns="http://www.w3.org/2000/svg" xmlns:xlink="http://www.w3.org/1999/xlink">
    <title>download-appstore</title>
    <g id="Page-1" stroke="none" stroke-width="1" fill="none" fill-rule="evenodd">
        <g id="download-appstore">
            <rect id="Rectangle" fill="#000000" fill-rule="nonzero" x="0" y="0" width="177" height="56" rx="5.07"></rect>
            <g id="g14" transform="translate(88.500000, 28.000000) scale(1, -1) translate(-88.500000, -28.000000) translate(11.685739, 10.266667)">
                <g id="g28" transform="translate(43.699491, 4.971120)" fill="#FFFFFF" fill-rule="nonzero">
                    <path d="M4.98591537,6.22222207 L9.56277793,6.22222207 L7.923866,10.6020442 C7.69866882,11.2070516 7.47700333,11.8751108 7.25803855,12.6066367 C7.06047165,11.9595256 6.84586955,11.2983108 6.61360899,10.6227849 L4.98591537,6.22222207 Z M10.3445279,4.14337767 L4.21392947,4.14337767 L2.71316895,0.0485333321 L0.0176584503,0.0485333321 L6.02153154,15.3402663 L8.56912655,15.3402663 L14.7101123,0.0485333321 L11.8774891,0.0485333321 L10.3445279,4.14337767 Z" id="path30"></path>
                </g>
                <g id="g32" transform="translate(59.428060, 0.126415)" fill="#FFFFFF" fill-rule="nonzero">
                    <path d="M7.06338011,7.67407388 C7.59541882,8.38797016 7.86154206,9.43122939 7.86154206,10.803022 C7.86154206,12.0765034 7.64153854,12.9996737 7.20070052,13.5733626 C6.75986251,14.1468441 6.1738097,14.4332737 5.44088015,14.4332737 C4.93314776,14.4332737 4.46447172,14.3140145 4.03485201,14.0746663 C3.60544005,13.8355256 3.19597175,13.5152886 2.80894007,13.1141626 L2.80894007,7.01431094 C3.06903866,6.88758501 3.37234851,6.78740724 3.71762315,6.7135702 C4.06289779,6.63994057 4.40443299,6.60302206 4.74347523,6.60302206 C5.75831676,6.60302206 6.53113364,6.9601776 7.06338011,7.67407388 M0.197982389,13.494133 C0.197982389,14.3386959 0.169313376,15.2668441 0.113637321,16.280444 L2.56566895,16.280444 C2.65686965,15.8087996 2.72023233,15.3267848 2.75596472,14.8341922 C3.7705985,15.9390515 4.93314776,16.4913774 6.24423576,16.4913774 C7.00500335,16.4913774 7.71030262,16.2995255 8.35805613,15.9162366 C9.00664062,15.5327404 9.53016173,14.927733 9.92841172,14.1012145 C10.326454,13.2744886 10.5256828,12.2239701 10.5256828,10.9511108 C10.5256828,9.62121457 10.297785,8.48482942 9.84302792,7.54216277 C9.38910188,6.59949613 8.75277443,5.88559985 7.9354998,5.39985172 C7.11822517,4.9145184 6.1738097,4.67143692 5.10266889,4.67143692 C4.3271513,4.67143692 3.56285202,4.80210358 2.80894007,5.06219247 L2.80894007,0.355496287 L0.197982389,0.133777774 L0.197982389,13.494133 Z" id="path34"></path>
                </g>
                <g id="g36" transform="translate(71.426852, 0.126415)" fill="#FFFFFF" fill-rule="nonzero">
                    <path d="M7.06338011,7.67407388 C7.59562657,8.38797016 7.86154206,9.43122939 7.86154206,10.803022 C7.86154206,12.0765034 7.64153854,12.9996737 7.20070052,13.5733626 C6.75986251,14.1468441 6.1738097,14.4332737 5.44088015,14.4332737 C4.93314776,14.4332737 4.46447172,14.3140145 4.03485201,14.0746663 C3.60544005,13.8355256 3.19597175,13.5152886 2.80894007,13.1141626 L2.80894007,7.01431094 C3.06883091,6.88758501 3.37234851,6.78740724 3.71762315,6.7135702 C4.06269004,6.63994057 4.40443299,6.60302206 4.74347523,6.60302206 C5.75831676,6.60302206 6.53113364,6.9601776 7.06338011,7.67407388 M0.197982389,13.494133 C0.197982389,14.3386959 0.169313376,15.2668441 0.113637321,16.280444 L2.5654612,16.280444 C2.65686965,15.8087996 2.72023233,15.3267848 2.75596472,14.8341922 C3.7705985,15.9390515 4.93314776,16.4913774 6.24444351,16.4913774 C7.00521109,16.4913774 7.71009488,16.2995255 8.35784838,15.9162366 C9.00664062,15.5327404 9.52995399,14.927733 9.92820398,14.1012145 C10.326454,13.2744886 10.5254751,12.2239701 10.5254751,10.9511108 C10.5254751,9.62121457 10.297785,8.48482942 9.84302792,7.54216277 C9.38910188,6.59949613 8.75277443,5.88559985 7.93529206,5.39985172 C7.11822517,4.9145184 6.1738097,4.67143692 5.10266889,4.67143692 C4.3271513,4.67143692 3.56285202,4.80210358 2.80894007,5.06219247 L2.80894007,0.355496287 L0.197982389,0.133777774 L0.197982389,13.494133 Z" id="path38"></path>
                </g>
                <g id="g40" transform="translate(83.346306, 4.705783)" fill="#FFFFFF" fill-rule="nonzero">
                    <path d="M3.53169005,1.03703701 C2.40383445,1.65946663 1.53711616,2.55131845 0.930911949,3.71176287 C0.324915485,4.87303692 0.0224366192,6.24482947 0.0224366192,7.82776277 C0.0224366192,9.54447384 0.371035202,11.0027553 1.06864786,12.2023997 C1.76667601,13.4016293 2.7160774,14.3021922 3.917683,14.9036737 C5.11845762,15.5053626 6.46610899,15.8061033 7.96063712,15.8061033 C8.84168992,15.8061033 9.68160891,15.7094515 10.4814328,15.5157329 C11.2814645,15.3222218 12.0264434,15.0569478 12.7178236,14.7192885 L12.0517884,12.7140738 C10.6630033,13.3750811 9.33799625,13.705896 8.07739064,13.705896 C7.01310546,13.705896 6.08094703,13.4791997 5.28112311,13.0253923 C4.48109144,12.5717923 3.85951399,11.9049775 3.41514428,11.0253627 C2.97181331,10.1459553 2.74910909,9.0840294 2.74910909,7.83834054 C2.74910909,6.74799983 2.92049993,5.7804443 3.26203513,4.93629617 C3.60398583,4.09214805 4.14288018,3.42325917 4.87934143,2.93108141 C5.61580268,2.43848883 6.54442941,2.19229624 7.66439065,2.19229624 C8.17212304,2.19229624 8.67985542,2.23439994 9.18675681,2.31922957 C9.69448919,2.40343698 10.1700209,2.52663697 10.6135596,2.68862216 L10.6135596,5.7804443 L7.07314419,5.7804443 L7.07314419,7.80660721 L13.1507673,7.80660721 L13.1507673,1.36909626 C12.2769856,0.961125902 11.3587462,0.648148132 10.3970878,0.429748137 C9.43542934,0.211762958 8.47896458,0.103081479 7.52686249,0.103081479 C5.99057732,0.103081479 4.65954566,0.414192582 3.53169005,1.03703701" id="path42"></path>
                </g>
                <g id="g44" transform="translate(98.315811, 4.641591)" fill="#FFFFFF" fill-rule="nonzero">
                    <path d="M6.02464774,2.48888883 C6.56728153,2.7487703 7.01165123,3.07253326 7.35671813,3.45976288 L7.35671813,5.5703406 C6.64456321,5.64749616 6.06370407,5.68628134 5.61268648,5.68628134 C4.53448228,5.68628134 3.78929568,5.51226653 3.37712668,5.1640295 C2.96495767,4.81579247 2.75887317,4.34601471 2.75887317,3.75531842 C2.75887317,3.19241474 2.90845063,2.77531845 3.20760555,2.50444438 C3.50759146,2.23377772 3.9145668,2.09813328 4.42832383,2.09813328 C4.94997523,2.09813328 5.48222169,2.22838513 6.02464774,2.48888883 M7.58877094,0.378103694 C7.49757024,0.821333313 7.43773925,1.32429626 7.40969348,1.88740736 C7.0079118,1.40850367 6.48459843,1.00219257 5.83933788,0.668681465 C5.19532381,0.334340732 4.46758792,0.167377774 3.65716892,0.167377774 C3.00152105,0.167377774 2.40424994,0.295762956 1.86514784,0.552118505 C1.32604574,0.809096276 0.898295752,1.19591108 0.58085914,1.71318514 C0.263630275,2.2302518 0.105327462,2.86159993 0.105327462,3.60743695 C0.105327462,4.71188136 0.503577452,5.59294801 1.30007743,6.2510517 C2.09636967,6.90915538 3.42407738,7.23789612 5.2846548,7.23789612 C5.98309844,7.23789612 6.67323223,7.18853315 7.35671813,7.09001464 L7.35671813,7.31173315 C7.35671813,8.31786646 7.14190827,9.02657755 6.71166533,9.43807384 C6.28204562,9.84936272 5.66545408,10.0555257 4.86209847,10.0555257 C4.30575341,10.0555257 3.71014427,9.97463679 3.0754788,9.81265161 C2.44164431,9.65066643 1.88426052,9.45757013 1.40519715,9.2323257 L0.993028144,11.1321775 C1.45838025,11.3429034 2.07123234,11.5366219 2.83283092,11.7125034 C3.5935985,11.8879701 4.39695412,11.9761182 5.24289776,11.9761182 C6.22886252,11.9761182 7.06795053,11.8265775 7.75849981,11.527496 C8.44884134,11.2284145 8.98794344,10.7148738 9.37559836,9.98708123 C9.76346102,9.25887384 9.95749623,8.27866646 9.95749623,7.04770353 L9.95749623,2.52041475 C9.95749623,2.04918513 9.98512651,1.33487404 10.0416336,0.378103694 L7.58877094,0.378103694 Z" id="path46"></path>
                </g>
                <g id="g48" transform="translate(110.557230, 4.642192)" fill="#FFFFFF" fill-rule="nonzero">
                    <path d="M0,3.11111103 L0,16.5664588 L2.59973937,16.7773922 L2.59973937,3.57487398 C2.59973937,3.08974807 2.68242247,2.74690364 2.8484119,2.54634068 C3.01357035,2.34598513 3.27636964,2.24559994 3.63618653,2.24559994 C3.79781329,2.24559994 4.02758089,2.28438513 4.32320412,2.36154068 L4.63004566,0.49342221 C4.3830351,0.394903694 4.08138722,0.315881474 3.72572526,0.255940734 C3.37027104,0.19641481 3.03372176,0.166755551 2.71628514,0.166755551 C0.905151386,0.166755551 0,1.14799997 0,3.11111103" id="path50"></path>
                </g>
                <g id="g52" transform="translate(117.058240, 4.642192)" fill="#FFFFFF" fill-rule="nonzero">
                    <path d="M0,3.11111103 L0,16.5664588 L2.59994712,16.7773922 L2.59994712,3.57487398 C2.59994712,3.08974807 2.68242247,2.74690364 2.8484119,2.54634068 C3.01377809,2.34598513 3.27636964,2.24559994 3.63618653,2.24559994 C3.79781329,2.24559994 4.02758089,2.28438513 4.32320412,2.36154068 L4.63004566,0.49342221 C4.38324285,0.394903694 4.08138722,0.315881474 3.72593301,0.255940734 C3.37027104,0.19641481 3.03372176,0.166755551 2.71628514,0.166755551 C0.905151386,0.166755551 0,1.14799997 0,3.11111103" id="path54"></path>
                </g>
                <g id="g56" transform="translate(122.278265, 4.778293)" fill="#FFFFFF" fill-rule="nonzero">
                    <path d="M7.68661953,7.25925908 C7.63800685,8.16687387 7.40823925,8.84779237 6.99960194,9.30139236 C6.59117237,9.75519976 6.04500689,9.98189605 5.36172874,9.98189605 C4.69901749,9.98189605 4.14786609,9.7535405 3.70702808,9.29599977 C3.26702105,8.83866645 2.97929218,8.15982202 2.8452957,7.25925908 L7.68661953,7.25925908 Z M10.2342145,5.60269616 L2.77133796,5.60269616 C2.89141542,3.21771844 4.0294506,2.02491847 6.18565125,2.02491847 C6.72142941,2.02491847 7.26904911,2.08983698 7.82996459,2.22008883 C8.39004909,2.35034068 8.92728147,2.52435549 9.44186948,2.74275549 L10.0123413,0.95884442 C8.7369857,0.339940732 7.30311954,0.0304888881 5.71011958,0.0304888881 C4.49812665,0.0304888881 3.47642949,0.258844438 2.64440486,0.71617776 C1.81341897,1.17371849 1.18810208,1.83119995 0.768038713,2.6898666 C0.349014076,3.54770362 0.13960563,4.58225174 0.13960563,5.79268134 C0.13960563,7.05185168 0.361063371,8.13514054 0.805433078,9.04275533 C1.24980279,9.95078494 1.86805629,10.6433183 2.66102458,11.1215997 C3.45295414,11.6005034 4.36766186,11.8394367 5.40327803,11.8394367 C6.48148223,11.8394367 7.38227094,11.5878516 8.10481318,11.0846812 C8.82631668,10.5817183 9.36188709,9.91158494 9.71152441,9.07428125 C10.0603307,8.23718498 10.2342145,7.31214797 10.2342145,6.29917021 L10.2342145,5.60269616 Z" id="path58"></path>
                </g>
                <g id="g60" transform="translate(134.408727, 4.835620)" fill="#FFFFFF" fill-rule="nonzero">
                    <path d="M0.207746474,8.71111089 C0.207746474,9.33748125 0.17907746,10.2903109 0.123401405,11.571259 L2.56504571,11.571259 C2.60763374,11.2545479 2.64752106,10.8762368 2.68678514,10.4367405 C2.72480275,9.99662197 2.75180979,9.63988124 2.7657288,9.36548125 C3.06841542,9.86491827 3.36653161,10.2853331 3.65862315,10.6263108 C3.95092244,10.967496 4.29349637,11.2458368 4.68468298,11.4600886 C5.07524635,11.6749627 5.52107028,11.7821923 6.0209083,11.7821923 C6.42268998,11.7821923 6.76796462,11.7400886 7.0575632,11.6554664 L6.72973927,9.39721458 C6.47587308,9.47457754 6.19396111,9.51315532 5.88358788,9.51315532 C5.27073578,9.51315532 4.73516537,9.35635532 4.27687665,9.04358496 C3.81879568,8.73060719 3.32913724,8.21478498 2.80852458,7.49736278 L2.80852458,0.184177773 L0.207746474,0.184177773 L0.207746474,8.71111089 Z" id="path62"></path>
                </g>
                <g id="g64" transform="translate(141.993489, 0.152963)" fill="#FFFFFF" fill-rule="nonzero">
                    <path d="M1.03873237,0.207407402 C0.657725336,0.274192586 0.344859146,0.349896288 0.0978485891,0.434518508 L0.573588014,2.33374809 C0.748926038,2.28479994 0.971838004,2.23751106 1.23962321,2.1912592 C1.50740841,2.14583698 1.7612746,2.12281476 2.0003908,2.12281476 C3.15566894,2.12281476 4.02259497,2.86533326 4.60075341,4.34995545 L4.76965129,4.7718221 L0.562992944,16.2538959 L3.36362316,16.2538959 L5.47806676,9.83733309 C5.8233414,8.73973311 6.04521464,7.89890351 6.14410196,7.31525908 C6.34146111,8.13845906 6.57372167,8.96145163 6.84150687,9.78485901 L8.98752794,16.2538959 L11.6192603,16.2538959 L7.423197,4.71914062 C7.0284787,3.62838509 6.60239068,2.74918512 6.14410196,2.08071106 C5.68602098,1.41244441 5.14525691,0.916325903 4.52180975,0.592770356 C3.89753159,0.269214808 3.14548936,0.107229627 2.26443656,0.107229627 C1.82733798,0.107229627 1.41953165,0.140622219 1.03873237,0.207407402" id="path66"></path>
                </g>
                <g id="g68" transform="translate(0.020691, 1.442767)" fill="#C8102E">
                    <path d="M24.3063374,33.8074066 L9.56215469,33.8074066 C2.61656684,33.8074066 0.0760352094,31.2710214 0.0760352094,24.3369772 L0.0760352094,9.61665161 C0.0760352094,2.68281475 2.61656684,0.146429626 9.56194694,0.146429626 L24.301767,0.146429626 C31.2473549,0.146429626 33.7924569,2.68281475 33.7924569,9.61665161 L33.7924569,24.3369772 C33.7924569,31.2710214 31.2519253,33.8074066 24.3063374,33.8074066" id="path70"></path>
                </g>
                <g id="g72" transform="translate(3.795736, 13.861493)" fill="#FFFFFF" fill-rule="nonzero">
                    <path d="M11.0105631,1.86666662 L12.3627849,1.86666662 L11.6844927,3.44151103 L11.0105631,1.86666662 Z M10.6777533,1.07333331 L10.2765948,0.157007403 L9.36354906,0.157007403 L11.3053554,4.55528878 L12.0945842,4.55528878 L14.0287039,0.157007403 L13.0909363,0.157007403 L12.6951793,1.07333331 L10.6777533,1.07333331 Z M25.3720768,0.159911107 L26.2545839,0.159911107 L26.2545839,4.55508137 L25.3720768,4.55508137 L25.3720768,0.159911107 Z M21.8592917,2.0483555 L23.4859466,2.0483555 L23.4859466,2.8495703 L21.8592917,2.8495703 L21.8592917,3.75034065 L24.2207459,3.75034065 L24.2207459,4.55259248 L20.9769924,4.55259248 L20.9769924,0.157214811 L24.3059219,0.157214811 L24.3059219,0.95884442 L21.8592917,0.95884442 L21.8592917,2.0483555 Z M18.3525312,1.52900737 L17.3518165,4.55549618 L16.6217954,4.55549618 L15.6210806,1.52900737 L14.6471651,4.55342211 L13.6952708,4.55342211 L15.2317637,0.154518515 L15.9721721,0.154518515 L16.9745489,3.04391104 L17.9765101,0.154518515 L18.7233587,0.154518515 L20.2559044,4.55342211 L19.3287319,4.55342211 L18.3525312,1.52900737 Z M8.01589769,2.03611847 C8.01589769,1.32077034 7.66023572,0.938311088 7.01393644,0.938311088 C6.36431322,0.938311088 6.00636605,1.33155552 6.00636605,2.06681476 L6.00636605,4.55279989 L5.11180973,4.55279989 L5.11180973,2.03611847 C5.11180973,0.798518499 5.80090478,0.0885629607 7.00188715,0.0885629607 C8.21471106,0.0885629607 8.91003851,0.811792572 8.91003851,2.07282958 L8.91003851,4.55528878 L8.01589769,4.55528878 L8.01589769,2.03611847 Z M2.97783795,4.55528878 L3.87197878,4.55528878 L3.87197878,0.154311107 L2.97783795,0.154311107 L2.97783795,1.94154069 L0.958334483,1.94154069 L0.958334483,0.154311107 L0.0637781674,0.154311107 L0.0637781674,4.55528878 L0.958334483,4.55528878 L0.958334483,2.77988141 L2.97783795,2.77988141 L2.97783795,4.55528878 Z" id="path74"></path>
                </g>
                <g id="g76" transform="translate(11.137974, 24.020100)" fill="#FFFFFF" fill-rule="nonzero">
                    <path d="M5.81690126,0 C2.72230979,0 0.204630277,2.51357031 0.204630277,5.60311097 L0.997598567,5.60311097 C0.997598567,2.95016289 3.15961612,0.791674054 5.81690126,0.791674054 C8.47439415,0.791674054 10.636204,2.95016289 10.636204,5.60311097 L11.4291722,5.60311097 C11.4291722,2.51357031 8.91149273,0 5.81690126,0" id="path78"></path>
                </g>
                <g id="g80" transform="translate(43.345159, 25.592663)" fill="#FFFFFF" fill-rule="nonzero">
                    <path d="M5.19366184,1.45185182 C5.55888014,1.69659255 5.83185901,2.03342217 6.01259844,2.46234068 C6.19354562,2.89105178 6.28391534,3.38157029 6.28391534,3.93348138 C6.28391534,4.47522952 6.20393294,4.95786654 6.04396816,5.38139246 C5.88400337,5.80512578 5.62847521,6.14278503 5.27717592,6.39457762 C4.92587664,6.6461628 4.47382031,6.77205909 3.9207992,6.77205909 C3.39208442,6.77205909 2.94335204,6.64450354 2.57480979,6.38939243 C2.2060598,6.13407392 1.92975699,5.79205911 1.74527813,5.36314061 C1.561007,4.93442951 1.46876757,4.46133322 1.46876757,3.94405916 C1.46876757,3.3987851 1.55581334,2.91096289 1.72969714,2.48038512 C1.90358094,2.04980736 2.16949642,1.70965922 2.52785909,1.4597333 C2.88601401,1.20959997 3.32955273,1.08453331 3.85805976,1.08453331 C4.38324285,1.08453331 4.82844354,1.20690367 5.19366184,1.45185182 M1.81321122,0.527229616 C1.26019011,0.843318497 0.837633782,1.28696293 0.545334493,1.85795551 C0.253242951,2.42915549 0.10719718,3.093274 0.10719718,3.85010361 C0.10719718,4.64530359 0.262799289,5.34074061 0.574211253,5.93620726 C0.885415471,6.53167391 1.33394011,6.99170353 1.91999291,7.31629611 C2.50604571,7.64109611 3.19742598,7.8034961 3.99371821,7.8034961 C4.75552453,7.8034961 5.41096465,7.64628129 5.96045408,7.33205908 C6.5099435,7.01783686 6.92917588,6.57605909 7.21773574,6.00651837 C7.50650333,5.43697764 7.65088713,4.7774221 7.65088713,4.02722953 C7.65088713,3.21834066 7.49341531,2.51522957 7.1786794,1.91789625 C6.86394349,1.32077034 6.41521111,0.860533312 5.83269,0.537807394 C5.25016888,0.214874069 4.565852,0.0533037024 3.77994709,0.0533037024 C3.02167246,0.0533037024 2.36623234,0.211348143 1.81321122,0.527229616" id="path82"></path>
                </g>
                <g id="g84" transform="translate(51.147929, 25.566343)" fill="#FFFFFF" fill-rule="nonzero">
                    <polygon id="path86" points="2.49295768 6.63703687 0.150616193 6.63703687 0.265292247 7.72551092 6.1447252 7.72551092 6.02464774 6.63703687 3.79719005 6.63703687 3.79719005 0.183970366 2.49295768 0.183970366"></polygon>
                </g>
                <g id="g88" transform="translate(58.289921, 25.750251)" fill="#FFFFFF" fill-rule="nonzero">
                    <path d="M6.02464774,0 L4.55338721,0 L2.30494713,3.32287399 L1.41288377,3.32287399 L1.41288377,0 L0.108651406,0 L0.108651406,7.54154055 L1.41288377,7.54154055 L1.41288377,4.427111 L2.09636967,4.427111 L3.6615316,6.68743687 C3.89088371,7.02426649 4.12127454,7.2681776 4.35270412,7.41917018 C4.58392594,7.57037018 4.8751865,7.64586648 5.22648578,7.64586648 C5.51857733,7.64586648 5.7795069,7.59712574 6.00906675,7.50005907 L5.73774986,6.48438502 C5.59523578,6.54328873 5.45936958,6.57274058 5.33077451,6.57274058 C5.17766536,6.57274058 5.04657734,6.53457761 4.9368872,6.45825169 C4.82740481,6.38192577 4.71335199,6.25872577 4.59514425,6.08844429 L3.21279922,4.10936286 L6.02464774,0 Z" id="path90"></path>
                </g>
                <g id="g92" transform="translate(65.257945, 25.569164)" fill="#FFFFFF" fill-rule="nonzero">
                    <path d="M3.32394358,4.35555545 C3.60211611,4.60714063 3.74130624,4.9622221 3.74130624,5.42059246 C3.74130624,5.88580726 3.59962315,6.22097762 3.31604921,6.42568873 C3.03268302,6.63060724 2.61615134,6.7330665 2.06666192,6.7330665 L1.35720771,6.7330665 L1.35720771,4.05605916 C1.68420066,4.0039999 1.93453516,3.97786657 2.10841896,3.97786657 C2.64045768,3.97786657 3.04577105,4.10376286 3.32394358,4.35555545 M0.0529753508,7.72260721 L2.08764431,7.72260721 C3.04390133,7.72260721 3.77620765,7.52826648 4.28394003,7.1393776 C4.79167242,6.75048872 5.04553861,6.18799985 5.04553861,5.45191097 C5.04553861,4.95185173 4.93169354,4.51525915 4.70379566,4.14192582 C4.47610552,3.7685925 4.15866891,3.48237028 3.75190131,3.28263695 C3.34492597,3.08290363 2.87708091,2.98314067 2.34836614,2.98314067 C2.05980629,2.98314067 1.72928165,3.0177777 1.35720771,3.08725918 L1.35720771,0.181066662 L0.0529753508,0.181066662 L0.0529753508,7.72260721 Z" id="path94"></path>
                </g>
                <g id="g96" transform="translate(70.999684, 25.592663)" fill="#FFFFFF" fill-rule="nonzero">
                    <path d="M5.19366184,1.45185182 C5.55888014,1.69659255 5.83185901,2.03342217 6.01259844,2.46234068 C6.19354562,2.89105178 6.28412308,3.38157029 6.28412308,3.93348138 C6.28412308,4.47522952 6.20393294,4.95786654 6.04396816,5.38139246 C5.88400337,5.80512578 5.62826746,6.14278503 5.27717592,6.39457762 C4.92587664,6.6461628 4.47382031,6.77205909 3.9207992,6.77205909 C3.39208442,6.77205909 2.94335204,6.64450354 2.57480979,6.38939243 C2.2060598,6.13407392 1.92975699,5.79205911 1.74527813,5.36314061 C1.561007,4.93442951 1.46876757,4.46133322 1.46876757,3.94405916 C1.46876757,3.3987851 1.55581334,2.91096289 1.72969714,2.48038512 C1.90358094,2.04980736 2.16949642,1.70965922 2.52785909,1.4597333 C2.88601401,1.20959997 3.32955273,1.08453331 3.85805976,1.08453331 C4.38324285,1.08453331 4.82844354,1.20690367 5.19366184,1.45185182 M1.81321122,0.527229616 C1.26019011,0.843318497 0.837633782,1.28696293 0.545334493,1.85795551 C0.253242951,2.42915549 0.10719718,3.093274 0.10719718,3.85010361 C0.10719718,4.64530359 0.262799289,5.34074061 0.574211253,5.93620726 C0.885415471,6.53167391 1.33394011,6.99170353 1.91999291,7.31629611 C2.50604571,7.64109611 3.19742598,7.8034961 3.99371821,7.8034961 C4.75552453,7.8034961 5.41096465,7.64628129 5.96045408,7.33205908 C6.5099435,7.01783686 6.92917588,6.57605909 7.21794348,6.00651837 C7.50629559,5.43697764 7.65088713,4.7774221 7.65088713,4.02722953 C7.65088713,3.21834066 7.49341531,2.51522957 7.1786794,1.91789625 C6.86394349,1.32077034 6.41521111,0.860533312 5.83269,0.537807394 C5.25016888,0.214874069 4.565852,0.0533037024 3.77994709,0.0533037024 C3.02167246,0.0533037024 2.36602459,0.211348143 1.81321122,0.527229616" id="path98"></path>
                </g>
                <g id="g100" transform="translate(80.063953, 25.651815)" fill="#FFFFFF" fill-rule="nonzero">
                    <path d="M2.28521121,8.29629609 C2.01057037,8.44210349 1.80095418,8.62959978 1.65677813,8.85878496 C1.51218658,9.08797014 1.42098588,9.33457754 1.38276053,9.59839976 L2.32177459,9.59839976 C2.42253163,9.04296274 2.74952458,8.76503682 3.30254569,8.76503682 C3.85556681,8.76503682 4.18422173,9.04296274 4.2887182,9.59839976 L5.23271818,9.59839976 C5.19449283,9.33457754 5.10308438,9.08797014 4.95890833,8.85878496 C4.81452453,8.62959978 4.60407735,8.44210349 4.32756679,8.29629609 C4.05126398,8.15048869 3.70931329,8.07748128 3.30254569,8.07748128 C2.89910204,8.07748128 2.5600598,8.15048869 2.28521121,8.29629609 M5.22752452,0.0985185161 L5.22752452,4.24417767 C5.22752452,4.76518507 5.24663719,5.36231098 5.28486254,6.03597022 L1.49245067,0.0985185161 L0.0419647877,0.0985185161 L0.0419647877,7.64005907 L1.25229574,7.64005907 L1.25229574,3.33282955 C1.25229574,2.86408882 1.23671476,2.35179253 1.20534504,1.79635551 L4.94062664,7.64005907 L6.43785547,7.64005907 L6.43785547,0.0985185161 L5.22752452,0.0985185161 Z" id="path102"></path>
                </g>
                <g id="g104" transform="translate(87.457214, 25.566343)" fill="#FFFFFF" fill-rule="nonzero">
                    <polygon id="path106" points="2.49295768 6.63703687 0.150616193 6.63703687 0.265292247 7.72551092 6.1447252 7.72551092 6.02485548 6.63703687 3.79719005 6.63703687 3.79719005 0.183970366 2.49295768 0.183970366"></polygon>
                </g>
                <g id="g108" transform="translate(94.707836, 25.617780)" fill="#FFFFFF" fill-rule="nonzero">
                    <polygon id="path110" points="0 7.67407388 4.45013721 7.67407388 4.32486609 6.60115539 1.30423236 6.60115539 1.30423236 4.52314063 4.15264426 4.52314063 4.15264426 3.51783695 1.30423236 3.51783695 1.30423236 1.21582219 4.48670059 1.21582219 4.37701045 0.13253333 7.38063739e-16 0.13253333"></polygon>
                </g>
                <g id="g112" transform="translate(103.928830, 25.587395)" fill="#FFFFFF" fill-rule="nonzero">
                    <path d="M3.53169005,1.45185182 C3.79760554,1.66879996 3.93077103,1.9753481 3.93077103,2.37108142 C3.93077103,2.79128882 3.78389427,3.11069622 3.48993301,3.32951103 C3.1961795,3.54811843 2.77279218,3.65762954 2.21977107,3.65762954 L1.3432887,3.65762954 L1.3432887,1.1264296 L2.3240598,1.1264296 C2.86295415,1.1264296 3.26577457,1.23490367 3.53169005,1.45185182 M1.3432887,4.62103692 L2.15703164,4.62103692 C2.42814078,4.62103692 2.66746472,4.67496285 2.87438021,4.78260729 C3.0812957,4.89025173 3.2404295,5.0352295 3.35178161,5.21754061 C3.46292597,5.39985172 3.51880977,5.60020727 3.51880977,5.81902208 C3.51880977,6.12805911 3.40641893,6.35890354 3.18205274,6.5117628 C2.95768655,6.66462206 2.63360205,6.74094798 2.209176,6.74094798 L1.3432887,6.74094798 L1.3432887,4.62103692 Z M4.36122172,3.88930361 C4.6306689,3.72441472 4.84298579,3.50746658 4.99775692,3.23825177 C5.15252804,2.96924437 5.22980973,2.65419253 5.22980973,2.29309624 C5.22980973,1.87288884 5.12448227,1.50225181 4.91403509,1.18097775 C4.70379566,0.85991109 4.39591538,0.609777763 3.99080976,0.430992582 C3.58570414,0.252207401 3.09957739,0.162814811 2.53263726,0.162814811 L0.0704260546,0.162814811 L0.0704260546,7.70435536 L2.42814078,7.70435536 C3.22817245,7.70435536 3.82814427,7.54983685 4.22826398,7.24100723 C4.62796819,6.9319702 4.82802805,6.50823687 4.82802805,5.97001467 C4.82802805,5.52222208 4.70026397,5.14805913 4.4447358,4.84773321 C4.1889999,4.54740729 3.85432033,4.33647397 3.44048935,4.21493323 C3.78472526,4.16287397 4.0915668,4.05419249 4.36122172,3.88930361" id="path114"></path>
                </g>
            </g>
        </g>
    </g>
</svg>