<svg xmlns="http://www.w3.org/2000/svg" width="177" height="56" viewBox="0 0 177 56">
    <defs>
        <linearGradient id="a" x1="61.299%" x2="16.984%" y1="4.97%" y2="87.845%">
            <stop offset="0%" stop-color="#00A0FF"/>
            <stop offset=".66%" stop-color="#00A1FF"/>
            <stop offset="26.01%" stop-color="#00BEFF"/>
            <stop offset="51.22%" stop-color="#00D2FF"/>
            <stop offset="76.04%" stop-color="#00DFFF"/>
            <stop offset="100%" stop-color="#00E3FF"/>
        </linearGradient>
        <linearGradient id="b" x1="107.378%" x2="-190.634%" y1="49.984%" y2="49.984%">
            <stop offset="0%" stop-color="#FFE000"/>
            <stop offset="40.87%" stop-color="#FFBD00"/>
            <stop offset="77.54%" stop-color="#FFA500"/>
            <stop offset="100%" stop-color="#FF9C00"/>
        </linearGradient>
        <linearGradient id="c" x1="36.152%" x2="-134.834%" y1="51.709%" y2="178.965%">
            <stop offset="0%" stop-color="#FF3A44"/>
            <stop offset="100%" stop-color="#C31162"/>
        </linearGradient>
        <linearGradient id="d" x1="-68.739%" x2="7.521%" y1="-30.674%" y2="26.013%">
            <stop offset="0%" stop-color="#32A071"/>
            <stop offset="6.85%" stop-color="#2DA771"/>
            <stop offset="47.62%" stop-color="#15CF74"/>
            <stop offset="80.09%" stop-color="#06E775"/>
            <stop offset="100%" stop-color="#00F076"/>
        </linearGradient>
    </defs>
    <g fill="none" fill-rule="evenodd">
        <g transform="translate(.317)">
            <rect width="176.242" height="55.789" fill="#000" rx="5.072"/>
            <path fill="#C0C0C0" fill-rule="nonzero" d="M55.825 21.875v-1.588h5.666v1.588h1.142v-2.67h-1.002v-6.959h-5.238l-.295 4.876c-.062 1.064-.262 1.75-.836 2.084h-.585v2.669h1.148zm4.557-2.67h-3.677v-.044c.384-.451.496-1.07.552-1.983l.245-3.856h2.88v5.884zm6.815 1.216c2.312 0 3.767-1.594 3.767-4.152 0-2.557-1.455-4.156-3.767-4.156-2.318 0-3.767 1.599-3.767 4.156 0 2.558 1.449 4.152 3.767 4.152zm0-1.098c-1.527 0-2.49-1.181-2.49-3.054 0-1.877.963-3.059 2.49-3.059 1.527 0 2.485 1.182 2.485 3.06 0 1.872-.958 3.053-2.485 3.053zm8.453 1.098c1.85 0 3.109-.976 3.415-2.636h-1.242c-.251.97-1.048 1.543-2.168 1.543-1.476 0-2.413-1.186-2.413-3.064 0-1.861.948-3.06 2.408-3.06 1.092 0 1.95.675 2.173 1.706h1.237c-.212-1.677-1.588-2.797-3.41-2.797-2.246 0-3.684 1.604-3.684 4.15 0 2.564 1.427 4.158 3.684 4.158zm7.41-.134v-6.965h2.457v-1.076H79.35v1.076h2.463v6.965h1.248zm4.486.061c1.27 0 1.927-.635 2.669-2.362l2.462-5.74h-1.303l-1.95 4.943h-.084l-2.012-4.943h-1.326l2.72 6.252c-.307.535-.692.752-1.249.752-.217 0-.373-.027-.462-.05v1.076c.072.033.29.072.535.072zm7.338-.061v-6.954h4.023v6.954h1.242v-8.04H93.63v8.04h1.254zm8.096 0v-3.56h4.129v3.56h1.248v-8.04h-1.248v3.398h-4.13v-3.399h-1.247v8.04h1.248zm10.436.134c2.312 0 3.767-1.594 3.767-4.152 0-2.557-1.455-4.156-3.767-4.156-2.318 0-3.767 1.599-3.767 4.156 0 2.558 1.45 4.152 3.767 4.152zm0-1.098c-1.527 0-2.49-1.181-2.49-3.054 0-1.877.963-3.059 2.49-3.059 1.527 0 2.485 1.182 2.485 3.06 0 1.872-.958 3.053-2.485 3.053zm10.603.964c1.711 0 2.742-.858 2.742-2.274 0-1.07-.736-1.844-1.828-1.966v-.045c.803-.134 1.432-.897 1.432-1.75 0-1.214-.936-2.006-2.362-2.006h-3.21v8.04h3.226zm-.579-4.62h-1.399v-2.4h1.66c.904 0 1.416.411 1.416 1.158 0 .797-.596 1.243-1.677 1.243zm.323 3.6h-1.722V16.62h1.65c1.181 0 1.794.446 1.794 1.315 0 .87-.596 1.332-1.722 1.332z"/>
        </g>
        <path fill="#FFF" fill-rule="nonzero" d="M87.25 32.197c-2.804 0-5.097 2.14-5.097 5.084 0 2.919 2.293 5.083 5.098 5.083 2.804 0 5.121-2.164 5.121-5.083 0-2.944-2.292-5.084-5.121-5.084zm0 8.149c-1.536 0-2.877-1.265-2.877-3.065 0-1.825 1.317-3.065 2.878-3.065 1.56 0 2.878 1.24 2.878 3.065 0 1.8-1.342 3.065-2.878 3.065zm-11.12-8.15c-2.805 0-5.098 2.141-5.098 5.085 0 2.919 2.293 5.083 5.097 5.083 2.805 0 5.098-2.164 5.098-5.083 0-2.944-2.293-5.084-5.098-5.084zm0 8.15c-1.537 0-2.879-1.265-2.879-3.065 0-1.825 1.342-3.065 2.878-3.065 1.537 0 2.878 1.24 2.878 3.065-.024 1.8-1.341 3.065-2.878 3.065zm-13.268-6.592v2.164h5.17c-.146 1.217-.56 2.092-1.17 2.7-.757.755-1.927 1.582-4 1.582-3.17 0-5.659-2.554-5.659-5.717 0-3.162 2.488-5.716 5.659-5.716 1.707 0 2.975.681 3.902 1.532l1.512-1.508c-1.293-1.24-3-2.165-5.414-2.165-4.366 0-8.024 3.527-8.024 7.882 0 4.354 3.658 7.88 8.024 7.88 2.325 0 4.062-.751 5.44-2.14l.072-.073c1.414-1.41 1.878-3.43 1.878-5.035 0-.51-.05-.973-.122-1.338 0-.048-7.268-.048-7.268-.048zm54.193 1.68l-.03-.081c-.445-1.158-1.739-3.156-4.336-3.156-2.61 0-4.805 2.067-4.805 5.084 0 2.846 2.146 5.083 5.048 5.083 2.342 0 3.683-1.41 4.244-2.237l-1.732-1.144c-.585.852-1.365 1.411-2.512 1.411-1.121 0-1.95-.51-2.463-1.532l6.805-2.798c.023-.07-.2-.588-.219-.63zm-6.927 1.676c-.05-1.946 1.512-2.967 2.658-2.967.878 0 1.634.438 1.902 1.07l-.008.004c-.218.104-4.552 1.893-4.552 1.893zm-5.537 4.938h2.244v-14.91h-2.244v14.91zm-3.658-8.732h-.073c-.512-.584-1.464-1.12-2.683-1.12-2.536 0-4.878 2.239-4.878 5.085s2.342 5.06 4.878 5.06c1.22 0 2.17-.536 2.683-1.144h.073v.73c0 1.946-1.049 2.992-2.707 2.992-1.366 0-2.22-.973-2.561-1.8l-1.951.802c.56 1.338 2.049 2.992 4.512 2.992 2.634 0 4.829-1.532 4.829-5.278v-9.122h-2.122v.803zm-2.56 7.03c-1.537 0-2.83-1.29-2.83-3.065 0-1.8 1.293-3.09 2.83-3.09 1.511 0 2.706 1.314 2.706 3.09 0 1.775-1.195 3.065-2.707 3.065zm29.168-13.233h-5.34v14.91h2.219v-5.642h3.121c2.488 0 4.903-1.8 4.903-4.622 0-2.846-2.44-4.646-4.903-4.646zm.05 7.2h-3.171v-5.108h3.17c1.659 0 2.61 1.386 2.61 2.554 0 1.143-.951 2.554-2.61 2.554zm13.803-2.14c-1.61 0-3.292.705-3.975 2.286l1.975.827c.415-.827 1.22-1.095 2.05-1.095 1.145 0 2.34.706 2.34 1.922v.146c-.414-.243-1.268-.584-2.34-.584-2.123 0-4.318 1.168-4.318 3.357 0 1.995 1.756 3.284 3.707 3.284 1.513 0 2.342-.681 2.854-1.46h.073V42h2.146v-5.717c.025-2.627-1.95-4.11-4.512-4.11zm-.268 8.173c-.732 0-1.756-.365-1.756-1.265 0-1.144 1.268-1.606 2.366-1.606.975 0 1.439.22 2.049.511-.196 1.387-1.366 2.36-2.659 2.36zm12.658-7.857l-2.56 6.47h-.074l-2.658-6.47h-2.415l3.975 9.024-2.268 5.035h2.342l6.146-14.06h-2.488zm-20.12 9.56h2.243V27.136h-2.244v14.911z"/>
        <g fill-rule="nonzero">
            <path fill="url(#a)" d="M.58 30.563c-.353-.374-.58-.973-.58-1.72V1.795C0 1.047.202.449.58.075L.682 0l15.336 15.157v.349L.68 30.662l-.1-.1z" transform="matrix(1 0 0 -1 16.8 42.61)"/>
            <path fill="url(#b)" d="M5.17.125L.077 5.185v.35l5.12 5.06.126-.075 6.053-3.415c1.715-.973 1.715-2.568 0-3.54L5.322.175c-.025.024-.151-.05-.151-.05z" transform="matrix(1 0 0 -1 32.74 32.64)"/>
            <path fill="url(#c)" d="M20.682 10.67l-5.22 5.16L.05.598C.63 0 1.564-.075 2.623.524l18.06 10.145" transform="matrix(1 0 0 -1 17.355 43.11)"/>
            <path fill="url(#d)" d="M20.682 5.285L2.598 15.43c-1.06.598-1.993.523-2.573-.075L15.436.125l5.246 5.16z" transform="matrix(1 0 0 -1 17.355 27.404)"/>
        </g>
    </g>
</svg>
