<svg xmlns="http://www.w3.org/2000/svg" width="177" height="56" viewBox="0 0 177 56">
    <g fill="none" fill-rule="evenodd">
        <rect width="176.242" height="55.789" fill="#000" rx="5.072"/>
        <g fill="#FFF" fill-rule="nonzero">
            <path d="M68.789 42.468h-2.883l-1.564-4.941h-5.498l-1.503 4.941h-2.8l5.415-16.842h3.356l5.477 16.842zm-4.941-7.02l-1.421-4.407c-.144-.453-.432-1.503-.844-3.17h-.041c-.165.72-.433 1.77-.803 3.17l-1.4 4.406h4.509zM82.707 36.25c0 2.059-.556 3.706-1.688 4.9-1.009 1.07-2.265 1.606-3.747 1.606-1.606 0-2.76-.576-3.46-1.73v6.383h-2.696V34.335c0-1.297-.042-2.635-.103-3.994h2.367l.144 1.935h.042c.906-1.44 2.264-2.182 4.097-2.182 1.441 0 2.635.556 3.582 1.709.968 1.112 1.462 2.594 1.462 4.447zm-2.759.103c0-1.174-.267-2.162-.803-2.924-.576-.803-1.359-1.194-2.347-1.194-.659 0-1.276.227-1.812.66a3.181 3.181 0 0 0-1.07 1.729 3.47 3.47 0 0 0-.124.823v2.018c0 .885.268 1.626.803 2.244.535.618 1.256.906 2.12.906 1.01 0 1.813-.391 2.368-1.174.577-.782.865-1.811.865-3.088zM96.666 36.25c0 2.059-.555 3.706-1.688 4.9-1.009 1.07-2.265 1.606-3.747 1.606-1.606 0-2.759-.576-3.459-1.73v6.383h-2.697V34.335c0-1.297-.041-2.635-.103-3.994h2.368l.144 1.935h.041c.906-1.44 2.265-2.182 4.097-2.182 1.441 0 2.636.556 3.583 1.709.988 1.112 1.461 2.594 1.461 4.447zm-2.738.103c0-1.174-.267-2.162-.803-2.924-.576-.803-1.359-1.194-2.347-1.194-.659 0-1.276.227-1.812.66-.535.452-.885 1.029-1.07 1.729a3.47 3.47 0 0 0-.124.823v2.018c0 .885.268 1.626.803 2.244.535.597 1.256.906 2.12.906 1.01 0 1.813-.391 2.368-1.174.577-.782.865-1.811.865-3.088zM112.294 37.753c0 1.441-.495 2.594-1.503 3.5-1.092.988-2.636 1.483-4.592 1.483-1.812 0-3.273-.35-4.365-1.05l.618-2.245c1.174.7 2.491 1.05 3.891 1.05 1.01 0 1.812-.226 2.368-.679.556-.453.844-1.07.844-1.832 0-.68-.226-1.256-.7-1.73-.473-.473-1.235-.906-2.326-1.297-2.945-1.091-4.427-2.718-4.427-4.818 0-1.38.515-2.512 1.565-3.397 1.05-.885 2.43-1.318 4.138-1.318 1.524 0 2.82.268 3.83.803l-.68 2.203c-.947-.514-2.038-.782-3.232-.782-.947 0-1.71.226-2.224.7-.453.412-.68.926-.68 1.523 0 .66.268 1.215.783 1.648.453.39 1.256.823 2.45 1.297 1.441.576 2.512 1.256 3.192 2.038.72.762 1.05 1.73 1.05 2.903zM121.25 32.359h-2.986v5.888c0 1.503.515 2.244 1.565 2.244.474 0 .885-.04 1.194-.123l.083 2.059c-.536.206-1.236.309-2.1.309-1.071 0-1.895-.33-2.492-.968-.597-.659-.906-1.75-.906-3.274V32.36h-1.77V30.34h1.77v-2.224l2.656-.803v3.027h2.986v2.018zM134.653 36.312c0 1.873-.535 3.397-1.606 4.591-1.111 1.236-2.594 1.853-4.447 1.853-1.791 0-3.212-.597-4.262-1.77-1.05-1.174-1.585-2.677-1.585-4.468 0-1.874.556-3.418 1.647-4.633 1.091-1.194 2.574-1.791 4.406-1.791 1.791 0 3.212.597 4.303 1.77 1.009 1.133 1.544 2.615 1.544 4.448zm-2.8.062c0-1.112-.247-2.06-.72-2.862-.556-.968-1.38-1.441-2.43-1.441-1.091 0-1.915.473-2.47 1.44-.474.804-.721 1.771-.721 2.924 0 1.112.247 2.08.72 2.862.577.968 1.4 1.441 2.45 1.441 1.03 0 1.833-.494 2.43-1.461.473-.844.741-1.792.741-2.903zM143.424 32.709a5.586 5.586 0 0 0-.844-.083c-.947 0-1.688.35-2.203 1.071-.453.638-.68 1.441-.68 2.409v6.383H137V34.17c0-1.4-.02-2.677-.082-3.83h2.347l.103 2.327h.083c.288-.803.74-1.442 1.358-1.936.597-.432 1.256-.659 1.956-.659.247 0 .474.021.68.042l-.02 2.594zM155.49 35.818c0 .473-.042.885-.104 1.214h-8.091c.02 1.195.432 2.121 1.174 2.76.679.555 1.564.844 2.655.844 1.195 0 2.286-.186 3.274-.577l.433 1.874c-1.153.494-2.512.74-4.077.74-1.874 0-3.356-.555-4.447-1.667-1.071-1.112-1.606-2.594-1.606-4.468 0-1.832.494-3.356 1.503-4.57 1.05-1.298 2.47-1.956 4.241-1.956 1.75 0 3.068.658 3.974 1.956.72 1.07 1.07 2.347 1.07 3.85zm-2.574-.7c.02-.803-.165-1.483-.515-2.08-.474-.762-1.194-1.132-2.141-1.132-.886 0-1.606.37-2.142 1.091-.452.577-.72 1.277-.802 2.1l5.6.02z"/>
        </g>
        <path fill="#D0D0D0" fill-rule="nonzero" d="M57.073 19.236c1.87 0 3.287-1.14 3.287-2.644 0-1.213-.743-2.062-1.938-2.21v-.05c.99-.235 1.666-1.065 1.666-2.061 0-1.412-1.232-2.402-2.99-2.402-1.858 0-3.065.99-3.158 2.587h1.313c.08-.885.755-1.43 1.801-1.43 1.028 0 1.666.533 1.666 1.387 0 .86-.706 1.461-1.728 1.461h-1.2v1.158h1.237c1.195 0 1.907.557 1.907 1.492 0 .91-.755 1.535-1.87 1.535-1.145 0-1.937-.563-2.018-1.442h-1.337c.08 1.572 1.418 2.619 3.362 2.619zm6.37-.106c.855 0 1.678-.458 2.056-1.182h.03v1.07h1.282V14.53c0-1.306-1.009-2.142-2.588-2.142-1.61 0-2.612.867-2.687 2.043H62.8c.118-.582.6-.953 1.375-.953.817 0 1.306.433 1.306 1.158v.501l-1.783.105c-1.548.087-2.42.787-2.42 1.926 0 1.17.89 1.962 2.166 1.962zm.372-1.058c-.718 0-1.189-.372-1.189-.941 0-.558.452-.91 1.25-.966l1.604-.1v.515c0 .848-.73 1.492-1.665 1.492zm5.745.947v-5.454h2.978v-1.06h-4.315v6.514h1.337zm5.436 2.154v-3.225h.03c.372.724 1.115 1.182 2.05 1.182 1.634 0 2.718-1.306 2.718-3.368 0-2.061-1.09-3.361-2.743-3.361-.94 0-1.69.476-2.074 1.225h-.025v-1.12h-1.294v8.667h1.338zm1.702-3.176c-1.027 0-1.708-.879-1.708-2.235 0-1.343.687-2.235 1.708-2.235 1.059 0 1.721.873 1.721 2.235 0 1.369-.662 2.235-1.72 2.235zm4.718 3.449c1.35 0 1.993-.508 2.55-2.087l2.44-6.853h-1.412l-1.647 5.3h-.024l-1.647-5.3h-1.449l2.353 6.52c0 .005-.118.39-.118.401-.204.67-.538.93-1.158.93-.111 0-.334 0-.433-.026v1.084c.1.018.433.03.545.03zm8.203-2.303c1.616 0 2.656-.824 2.656-2.025 0-.737-.446-1.275-1.331-1.46v-.05c.706-.161 1.151-.73 1.151-1.418 0-1.096-.885-1.802-2.414-1.802-1.53 0-2.452.743-2.588 1.895h1.275c.087-.514.558-.83 1.288-.83.78 0 1.133.372 1.133.88 0 .581-.378.897-1.189.897h-.934v.96h.94c.898 0 1.344.297 1.344.934 0 .564-.483.96-1.343.96-.756 0-1.251-.303-1.381-.873h-1.312c.117 1.244 1.225 1.932 2.705 1.932zm5.15-.124l2.997-4.575h.05v4.575h1.331v-6.513h-1.319l-3.002 4.556h-.05v-4.556h-1.325v6.513h1.319zm8.73 0v-5.454h2.037v-1.06h-5.417v1.06h2.037v5.454h1.343zm5.585 0c1.504 0 2.476-.873 2.476-2.254 0-1.374-.972-2.247-2.476-2.247h-1.239v-2.012h-1.337v6.513h2.576zm-.118-1.053h-1.12v-2.402h1.12c.761 0 1.263.477 1.263 1.201 0 .718-.495 1.201-1.263 1.201zm9.268 1.053c1.412 0 2.29-.73 2.29-1.876 0-.805-.557-1.387-1.399-1.498v-.05c.626-.117 1.109-.737 1.109-1.411 0-1.04-.768-1.678-2.037-1.678h-2.96v6.513h2.997zm-.452-3.808h-1.22v-1.733h1.356c.644 0 .997.31.997.86 0 .582-.378.873-1.133.873zm.241 2.836h-1.46v-1.9h1.306c.879 0 1.318.309 1.318.94 0 .626-.414.96-1.164.96z"/>
        <path fill="#FFF" fill-rule="nonzero" d="M35.533 18.02c1.662 0 3.15.455 4.462 1.362.726.503 1.453 1.201 2.179 2.095-1.103.936-1.9 1.76-2.388 2.472a7.459 7.459 0 0 0-1.362 4.337c0 1.732.482 3.29 1.445 4.672.964 1.382 2.067 2.262 3.31 2.64-.544 1.745-1.403 3.491-2.577 5.237-1.802 2.737-3.596 4.105-5.384 4.105-.684 0-1.662-.223-2.933-.67-1.201-.446-2.255-.67-3.163-.67-.852 0-1.844.23-2.975.692-1.131.474-2.053.711-2.765.711-2.123 0-4.225-1.808-6.306-5.425-2.053-3.646-3.08-7.158-3.08-10.538 0-3.184.79-5.796 2.368-7.835 1.564-2.012 3.547-3.018 5.95-3.018 1.005 0 2.24.21 3.707.63 1.453.418 2.417.628 2.892.628.628 0 1.626-.237 2.995-.712 1.425-.475 2.633-.713 3.625-.713zm-.356-7.877c.014.042.031.12.052.23l.015.078c.015.07.027.122.037.153 0 .057.004.126.01.21l.007.079c.003.05.004.093.004.13 0 .853-.202 1.802-.607 2.85-.42 1.047-1.069 2.01-1.949 2.89-.754.755-1.508 1.257-2.262 1.51-.517.153-1.243.271-2.179.355.042-2.08.587-3.876 1.634-5.384 1.034-1.494 2.78-2.528 5.238-3.1z"/>
    </g>
</svg>
